<?xml version="1.0" standalone="no"?><!DOCTYPE svg PUBLIC "-//W3C//DTD SVG 1.1//EN" "http://www.w3.org/Graphics/SVG/1.1/DTD/svg11.dtd"><svg t="1627550603165" class="icon" viewBox="0 0 1024 1024" version="1.1" xmlns="http://www.w3.org/2000/svg" p-id="8140" xmlns:xlink="http://www.w3.org/1999/xlink" width="32" height="32"><defs><style type="text/css">@font-face { font-family: feedback-iconfont; src: url("//at.alicdn.com/t/font_1031158_1uhr8ri0pk5.eot?#iefix") format("embedded-opentype"), url("//at.alicdn.com/t/font_1031158_1uhr8ri0pk5.woff2") format("woff2"), url("//at.alicdn.com/t/font_1031158_1uhr8ri0pk5.woff") format("woff"), url("//at.alicdn.com/t/font_1031158_1uhr8ri0pk5.ttf") format("truetype"), url("//at.alicdn.com/t/font_1031158_1uhr8ri0pk5.svg#iconfont") format("svg"); }
</style></defs><path d="M512.1 512.5m-448.1 0a448.1 448.1 0 1 0 896.2 0 448.1 448.1 0 1 0-896.2 0Z" fill="#E0E9FD" p-id="8141"></path><path d="M655.7 511.1c0.1 11.2-4.2 21.8-12 29.9l-0.1 0.1L443 743.7c-7.6 8-18.6 12.7-29.9 12.7-10.9 0-21.4-4.3-29.6-12.1-16.8-16.6-16.9-43.3-0.7-59.9l170.8-172.5-172.6-171c-16.7-16.7-16.9-42.9-0.5-59.7 16.2-16.6 43-16.9 59.7-0.5l200.1 198.2c0.9 0.7 1.8 1.5 2.6 2.3 8.3 7.9 12.8 18.5 12.8 29.9z" fill="#3070F5" p-id="8142"></path></svg>