<?xml version="1.0" standalone="no"?><!DOCTYPE svg PUBLIC "-//W3C//DTD SVG 1.1//EN" "http://www.w3.org/Graphics/SVG/1.1/DTD/svg11.dtd"><svg t="1627550483222" class="icon" viewBox="0 0 1024 1024" version="1.1" xmlns="http://www.w3.org/2000/svg" p-id="5376" xmlns:xlink="http://www.w3.org/1999/xlink" width="32" height="32"><defs><style type="text/css">@font-face { font-family: feedback-iconfont; src: url("//at.alicdn.com/t/font_1031158_1uhr8ri0pk5.eot?#iefix") format("embedded-opentype"), url("//at.alicdn.com/t/font_1031158_1uhr8ri0pk5.woff2") format("woff2"), url("//at.alicdn.com/t/font_1031158_1uhr8ri0pk5.woff") format("woff"), url("//at.alicdn.com/t/font_1031158_1uhr8ri0pk5.ttf") format("truetype"), url("//at.alicdn.com/t/font_1031158_1uhr8ri0pk5.svg#iconfont") format("svg"); }
</style></defs><path d="M853.333 381.44a55.893 55.893 0 0 0-2.56-11.52v-3.84a45.653 45.653 0 0 0-8.106-11.947l-256-256a45.653 45.653 0 0 0-11.947-8.106h-3.84l-13.653-4.694h-258.56a128 128 0 0 0-128 128v597.334a128 128 0 0 0 128 128h426.666a128 128 0 0 0 128-128V381.44z m-256-150.613L707.84 341.333H597.333zM768 810.667a42.667 42.667 0 0 1-42.667 42.666H298.667A42.667 42.667 0 0 1 256 810.667V213.333a42.667 42.667 0 0 1 42.667-42.666H512V384a42.667 42.667 0 0 0 42.667 42.667H768z" fill="#75C82B" p-id="5377"></path></svg>